<?xml version="1.0" encoding="UTF-8" standalone="no"?>
<!-- Created with Inkscape (http://www.inkscape.org/) -->

<svg
   width="287.90051mm"
   height="216.03284mm"
   viewBox="0 0 287.90051 216.03284"
   version="1.1"
   id="svg1"
   sodipodi:docname="arrow-right.svg"
   inkscape:version="1.3.2 (091e20e, 2023-11-25, custom)"
   xmlns:inkscape="http://www.inkscape.org/namespaces/inkscape"
   xmlns:sodipodi="http://sodipodi.sourceforge.net/DTD/sodipodi-0.dtd"
   xmlns="http://www.w3.org/2000/svg"
   xmlns:svg="http://www.w3.org/2000/svg">
  <sodipodi:namedview
     id="namedview1"
     pagecolor="#ffffff"
     bordercolor="#cccccc"
     borderopacity="1"
     inkscape:showpageshadow="0"
     inkscape:pageopacity="1"
     inkscape:pagecheckerboard="0"
     inkscape:deskcolor="#d1d1d1"
     inkscape:document-units="mm"
     inkscape:zoom="0.28965022"
     inkscape:cx="281.37386"
     inkscape:cy="291.73118"
     inkscape:window-width="1280"
     inkscape:window-height="649"
     inkscape:window-x="-8"
     inkscape:window-y="-8"
     inkscape:window-maximized="1"
     inkscape:current-layer="layer1" />
  <defs
     id="defs1" />
  <g
     inkscape:label="Layer 1"
     inkscape:groupmode="layer"
     id="layer1"
     transform="translate(90.752093,-3.4395827)">
    <g
       id="g78"
       transform="matrix(0.26458333,0,0,0.26458333,-684.3464,-18.684346)">
      <path
         style="fill:#707272;fill-opacity:1"
         d="m 2243.959,418.544 c 7.221,54.276 9.156,109.307 5.769,163.984 -1.482,23.931 -0.051,71.755 -0.051,71.755 l 35.417,59.155 c 0,0 38.686,10.629 58.838,10.735 152.174,0.795 300.302,-19.473 452.191,-9.807 6.109,0.389 5.906,151.053 5.906,151.053 0,0 48.301,26.328 82.66,34.701 C 3052.746,791.934 3240.323,628.633 3331.634,507.458 3294.261,444.92 3150.882,314.147 3059.25,214.126 3044.194,197.692 2910.284,83.618 2910.284,83.618 c -17.296,9.213 -103.493,33.075 -103.493,33.075 0,0 11.913,129.872 -0.322,161.701 -84.763,19.903 -140.3,11.788 -227.197,10.301 -81.903,-1.401 -103.481,-33.923 -184.767,-23.457 -21.928,2.823 -124.12,8.217 -124.12,8.217 0,0 -30.957,111.028 -26.426,145.089 z"
         id="path53" />
      <path
         style="fill:#909493"
         d="m 2272.097,425.925 c 6.795,49.268 8.617,99.22 5.429,148.852 -1.396,21.723 -0.049,65.133 -0.049,65.133 l 33.33,53.697 c 0,0 36.406,9.648 55.371,9.744 143.206,0.722 306.66,-17.676 449.599,-8.901 5.749,0.353 5.559,137.114 5.559,137.114 0,0 21.4,23.898 53.734,31.499 158.153,-98.204 334.677,-246.435 420.606,-356.428 -35.17,-56.767 -170.1,-175.473 -256.332,-266.264 -14.168,-14.918 -140.188,-118.465 -140.188,-118.465 -16.276,8.363 -66.703,30.023 -66.703,30.023 0,0 11.211,117.888 -0.304,146.779 -79.769,18.066 -162.722,10.701 -244.499,9.351 -77.077,-1.272 -97.383,-30.793 -173.878,-21.293 -20.636,2.563 -116.807,7.46 -116.807,7.46 0,0 -29.133,100.781 -24.868,131.699 z"
         id="path54" />
      <path
         style="fill:#a0a5a5"
         d="m 2911.318,455.442 c 27.375,-8.89 53.182,-27.079 64.16,-53.685 12.277,-29.755 3.989,-64.319 -10.94,-92.837 -14.929,-28.518 -36.067,-53.368 -51.643,-81.539 -15.575,-28.17 -25.415,-62.021 -15.198,-92.546 1.204,-3.597 2.646,-7.443 3.516,-11.239 -1.329,-1.093 -2.057,-1.691 -2.057,-1.691 -16.276,8.363 -66.703,30.023 -66.703,30.023 0,0 11.211,117.888 -0.304,146.779 -79.769,18.066 -162.722,10.701 -244.499,9.351 -77.077,-1.272 -97.383,-30.793 -173.878,-21.293 -20.636,2.563 -116.807,7.46 -116.807,7.46 0,0 -29.134,100.782 -24.869,131.7 6.795,49.268 8.617,99.22 5.429,148.852 -1.194,18.587 -0.38,53.049 -0.12,62.611 8.378,-1.953 17.94,-5.087 29.526,-8.811 24.033,-7.724 48.761,-15.826 67.945,-32.232 15.61,-13.351 26.475,-31.314 40.326,-46.481 26.542,-29.063 63.458,-47.036 101.521,-57.054 38.063,-10.018 77.619,-12.667 116.892,-15.271 64.084,-4.25 128.177,-8.501 192.349,-11.116 28.759,-1.172 57.978,-2.092 85.354,-10.981 z"
         id="path55" />
      <path
         style="fill:#adb3b3"
         d="m 2326.322,436.385 c 6.015,40.153 7.627,80.865 4.805,121.315 -1.234,17.704 -0.042,53.084 -0.042,53.084 l 29.499,43.763 c 0,0 32.223,7.863 49.008,7.941 126.748,0.588 298.74,-14.406 425.252,-7.255 5.089,0.288 4.921,111.748 4.921,111.748 0,0 16.943,19.477 45.562,25.672 139.978,-80.036 270.887,-200.844 346.941,-290.489 C 3201.14,455.899 3081.717,359.154 3005.395,285.159 2992.854,273 2893.545,171.1 2893.545,171.1 c -14.406,6.816 -36.013,13.804 -36.013,13.804 0,0 9.927,124.253 -0.264,147.8 -70.601,14.724 -179.278,8.721 -251.657,7.621 -68.219,-1.037 -86.191,-25.096 -153.895,-17.354 -18.265,2.089 -103.383,6.08 -103.383,6.08 0,0 -25.784,82.136 -22.011,107.334 z"
         id="path56" />
      <g
         id="g58">
        <path
           style="fill:#bebfb6"
           d="m 2348.497,624.915 c 0,0 -1.192,-35.38 0.042,-53.083 2.822,-40.45 1.21,-81.162 -4.805,-121.315 -3.774,-25.198 22.012,-107.336 22.012,-107.336 0,0 85.118,-3.991 103.383,-6.079 67.703,-7.742 85.676,16.317 153.895,17.354 72.379,1.1 181.057,7.104 251.657,-7.621 10.19,-23.547 0.264,-147.8 0.264,-147.8 0,0 19.306,-6.245 33.588,-12.686 -9.023,-9.249 -14.872,-15.249 -14.872,-15.249 -14.406,6.816 -36.013,13.804 -36.013,13.804 0,0 9.927,124.253 -0.264,147.8 -70.601,14.724 -179.278,8.721 -251.657,7.621 -68.219,-1.037 -86.191,-25.096 -153.895,-17.354 -18.265,2.089 -103.383,6.08 -103.383,6.08 0,0 -25.785,82.137 -22.012,107.335 6.015,40.153 7.627,80.865 4.805,121.315 -1.234,17.704 -0.042,53.083 -0.042,53.083 l 29.499,43.763 c 0,0 3.674,0.896 9.176,2.084 z"
           id="path57" />
        <path
           style="fill:#bebfb6"
           d="m 2852.256,669.364 c -4.828,-0.272 -9.732,-0.51 -14.688,-0.72 2.415,29.681 2.313,98.337 2.313,98.337 0,0 6.154,7.065 17.296,14.039 0,-3.533 0.085,-111.373 -4.921,-111.656 z"
           id="path58" />
      </g>
      <path
         style="fill:#707272"
         d="m 2452.318,321.173 c 0.397,2.437 0.847,4.996 2.403,6.913 1.729,2.131 4.493,3.07 7.106,3.909 8.556,2.748 17.112,5.495 25.669,8.243 3.898,1.252 7.948,2.593 10.872,5.459 3.174,3.112 4.562,7.566 5.834,11.827 9.453,31.625 18.906,63.251 28.358,94.876 1.06,3.545 2.196,7.228 4.726,9.928 3.133,3.345 7.826,4.602 12.195,5.985 15.818,5.008 30.503,13.566 42.656,24.863 -14.706,-20.155 -30.095,-42.437 -29.036,-67.365 0.405,-9.552 3.229,-19.414 0.11,-28.451 -4.51,-13.072 -19.682,-19.53 -26.092,-31.782 -5.407,-10.335 -3.732,-23.135 -8.457,-33.8 -2.894,-6.532 -7.977,-11.79 -12.723,-17.13 -9.619,-10.821 -18.511,-22.78 -30.945,-30.195 -7.413,-4.42 -41.586,-14.203 -49.314,-6.697 -8.411,8.171 14.8,32.131 16.638,43.417 z"
         id="path59" />
      <path
         style="fill:#707272"
         d="m 3088.754,657.762 c -2.474,-6.753 -0.477,-14.231 1.53,-21.138 -25.111,2.799 -50.223,5.598 -75.335,8.396 -9.311,1.038 -18.897,2.056 -27.92,-0.472 -13.684,-3.833 -24.076,-15.235 -37.432,-20.089 -13.578,-4.935 -28.584,-2.594 -42.83,-0.193 22.662,-8.148 45.953,-14.544 69.598,-19.114 2.587,-0.5 5.389,-0.953 7.756,0.204 2.642,1.29 3.99,4.192 5.699,6.583 5.236,7.329 14.864,10.463 23.865,10.146 9.002,-0.316 17.609,-3.561 26.027,-6.765 16.046,-6.108 32.092,-12.216 48.138,-18.325 7.474,-2.845 17.295,-5.133 22.331,1.079 3.13,3.86 2.815,9.403 4.518,14.073 3.852,10.566 19.837,13.961 27.65,5.874 3.472,9.166 6.943,18.331 10.415,27.496 0.993,2.624 2.002,5.325 1.961,8.13 -0.066,4.593 -2.892,8.629 -5.603,12.338 -4.601,6.295 -24.58,38.027 -34.423,34.726 -7.364,-2.47 -7.67,-29.293 -9.083,-35.276 -6.763,1.96 -14.245,-0.53 -16.862,-7.673 z"
         id="path60" />
      <path
         style="fill:#707272"
         d="m 3019.772,279.131 c -0.992,7.577 0.861,15.92 -3.09,22.462 -2.95,4.883 -8.461,7.52 -12.602,11.445 -4.969,4.71 -7.837,11.148 -11.03,17.204 -11.183,21.21 -27.483,39.242 -44.268,56.365 12.778,-9.336 26.826,-16.934 41.634,-22.518 4.903,-1.849 9.986,-3.53 14.138,-6.727 6.831,-5.26 10.277,-14.567 8.519,-23.008 13.868,-5.502 28.686,-8.598 43.597,-9.11 2.145,-11.361 5.424,-24.289 15.785,-29.419 6.399,-3.168 13.95,-2.449 21.046,-1.657 -10.288,-1.148 -24.718,-34.853 -39.079,-38.918 -15.43,-4.369 -32.477,7.286 -34.65,23.881 z"
         id="path61" />
      <path
         style="fill:#adb3b3"
         d="m 2346.851,327.868 c -9.597,21.349 -17.009,43.679 -22.082,66.53 -0.851,3.833 -1.887,8.067 -5.143,10.261 -1.696,1.143 -3.768,1.551 -5.78,1.908 -11.14,1.975 -22.42,3.151 -33.727,3.517 -3.032,-28.176 15.871,-54.384 17.212,-82.692 0.667,-14.071 -1.438,-28.136 14.741,-17.215 2.728,1.84 33.531,20.466 34.779,17.691 z"
         id="path62" />
      <path
         style="fill:#adb3b3"
         d="m 2313.95,452.927 c -0.587,39.01 -6.724,77.933 -18.166,115.232 -4.739,15.451 -10.428,30.835 -11.604,46.954 -0.107,1.457 -0.135,3.058 0.762,4.211 0.945,1.216 2.622,1.553 4.155,1.699 18.184,1.729 36.134,-13.988 36.824,-32.24 0.317,-8.406 -2.499,-16.565 -4.242,-24.795 -6.767,-31.938 2.622,-64.958 1.992,-97.599 -0.089,-4.62 0.901,-23.822 -2.778,-26.658 -7.106,-5.476 -6.875,8.683 -6.943,13.196 z"
         id="path63" />
      <path
         style="fill:#adb3b3"
         d="m 2320.987,302.993 c 8.894,3.57 17.788,7.14 26.682,10.71 4.16,1.67 8.355,3.35 12.769,4.132 5.065,0.897 10.256,0.584 15.391,0.268 17.357,-1.067 34.716,-2.135 52.074,-3.203 2.522,-0.155 5.264,-0.399 7.115,-2.12 1.09,-1.011 1.73,-2.431 2.051,-3.882 1.669,-7.548 -5.161,-14.807 -12.662,-16.678 -7.5,-1.871 -15.35,0.076 -22.918,1.654 -16.042,3.346 -32.4,5.033 -48.772,5.507 -8.195,0.237 -16.407,0.192 -24.599,-0.143 -1.537,-0.063 -6.973,-1.532 -8.266,-0.869 -3.054,1.566 -1.446,3.588 1.135,4.624 z"
         id="path64" />
      <path
         style="fill:#adb3b3"
         d="m 2847.54,168.023 c 2.609,3.696 5.438,7.573 9.619,9.304 7.146,2.958 15.048,-1.381 21.556,-5.563 1.54,-0.99 3.11,-2.007 4.246,-3.443 1.468,-1.854 2.074,-4.226 2.644,-6.521 2.412,-9.726 4.825,-19.451 7.237,-29.177 -4.188,-2.057 -9.023,0.669 -13.004,3.103 -9.02,5.517 -18.693,9.965 -28.752,13.225 -3.295,1.068 -9.913,1.736 -11.022,5.848 -1.102,4.08 5.307,10.151 7.476,13.224 z"
         id="path65" />
      <path
         style="fill:#adb3b3"
         d="m 2757.924,325.298 c -1.572,0.729 -3.338,1.712 -3.627,3.42 -0.197,1.163 0.387,2.326 1.144,3.23 3.862,4.612 11.009,3.891 16.948,2.936 17.534,-2.82 35.319,-4.078 53.077,-3.755 10.545,0.192 21.536,0.86 31.18,-3.41 0.519,-0.229 -16.316,-19.447 -18.687,-20.843 -5.937,-3.496 -15.055,-1.34 -21.551,-0.544 -20.483,2.51 -39.896,10.342 -58.484,18.966 z"
         id="path66" />
      <path
         style="fill:#818483"
         d="m 2830.365,788.9 c -1.375,14.68 -2.75,29.359 -4.125,44.038 10.573,4.77 21.146,9.539 31.718,14.308 2.401,1.083 4.866,2.184 7.527,2.433 2.66,0.25 5.601,-0.525 7.13,-2.542 1.093,-1.441 1.321,-3.273 1.492,-5.023 0.717,-7.357 0.999,-14.751 0.843,-22.137 -0.079,-3.744 -0.292,-7.575 -1.845,-11.037 -1.778,-3.966 -5.159,-7.11 -8.459,-10.145 -8.94,-8.219 -31.816,-36.212 -34.281,-9.895 z"
         id="path67" />
      <path
         style="fill:#818483"
         d="m 2884.603,840.958 c 7.091,1.771 13.129,-4.914 17.98,-10.38 11.946,-13.459 27.313,-23.335 42.472,-33.036 20.023,-12.813 40.046,-25.626 60.068,-38.439 3.953,-2.53 8.01,-5.157 10.709,-8.997 3.057,-4.348 4.043,-9.766 5.802,-14.782 8.894,-25.362 36.509,-38.807 51.773,-60.927 -2.819,-1.159 -5.826,0.98 -8.133,2.972 -32.941,28.443 -67.864,54.589 -104.423,78.201 -18.279,11.806 -36.968,22.979 -56.021,33.49 -9.059,4.997 -15.6,6.221 -17.979,15.916 -2.708,11.037 -1.537,24.611 -2.248,35.982 z"
         id="path68" />
      <path
         style="fill:#818483"
         d="m 3231.894,517.458 c 2.348,-2.632 4.731,-5.315 7.739,-7.159 2.873,-1.762 6.18,-2.672 9.464,-3.432 9.352,-2.164 18.943,-3.284 28.542,-3.334 1.186,-0.006 2.424,0.016 3.477,0.562 4.168,2.162 1.253,8.491 -2.009,11.869 -12.238,12.671 -24.476,25.341 -36.713,38.012 -5.951,6.162 -11.919,12.339 -18.535,17.781 -7.158,5.889 -15.048,10.893 -21.79,17.255 -8.263,7.796 -14.589,17.439 -19.842,27.513 -2.201,4.224 -4.465,8.795 -8.62,11.124 -4.155,2.328 -10.739,0.804 -11.579,-3.884 -0.25,-1.4 0.041,-2.834 0.044,-4.256 0.022,-11.031 -14.159,-6.559 -13.72,-14.792 0.437,-8.171 19.977,-21.039 25.502,-26.449 20.023,-19.607 39.385,-39.893 58.04,-60.81 z"
         id="path69" />
      <path
         style="fill:#a0a3a2"
         d="m 2395.309,383.655 c -8.066,9.148 -11.18,21.963 -10.199,34.12 0.882,10.924 4.805,21.548 4.569,32.504 -0.276,12.878 -5.799,27.561 2.414,37.484 4.187,5.059 11.542,7.234 17.807,5.267 8.558,-2.687 13.541,-11.83 14.997,-20.68 1.455,-8.851 0.276,-17.925 1.049,-26.861 0.772,-8.936 4.105,-18.461 11.823,-23.032 10.171,-6.025 24.083,-1.377 34.354,-7.232 10.52,-5.997 11.931,-23.146 2.533,-30.782 -4.7,-3.819 -10.897,-5.122 -16.837,-6.306 -20.4,-4.07 -46.35,-12.874 -62.51,5.518 z"
         id="path70" />
      <path
         style="fill:#a0a3a2"
         d="m 2370.629,557.645 c 6.596,10.671 19.274,16.045 31.616,18.293 9.207,1.677 19.052,1.905 27.567,-1.978 11.581,-5.28 19.057,-18.404 17.693,-31.059 -0.204,-1.891 -0.604,-3.81 -1.617,-5.418 -2.142,-3.398 -6.559,-4.667 -10.572,-4.543 -11.962,0.37 -24.13,10.279 -34.737,4.739 -4.419,-2.308 -7.171,-6.804 -10.681,-10.345 -16.497,-16.646 -27.059,17.708 -19.269,30.311 z"
         id="path71" />
      <path
         style="fill:#a0a3a2"
         d="m 2455.733,462.579 c -7.969,-1.009 -14.142,8.717 -12.052,16.473 2.09,7.756 9.625,12.897 17.295,15.284 7.671,2.387 15.836,2.708 23.619,4.694 2.489,0.635 5.05,1.446 7.576,0.982 3.621,-0.665 6.26,-3.77 8.201,-6.897 5.322,-8.573 7.154,-21.096 -0.36,-27.832 -5.444,-4.881 -13.642,-4.82 -20.88,-3.78 -7.238,1.04 -14.811,2.748 -21.689,0.268 z"
         id="path72" />
      <path
         style="fill:#a0a3a2"
         d="m 3036.602,394.206 c -12.396,6.75 -17.448,24.255 -10.552,36.571 6.516,11.638 20.772,17.064 27.948,28.308 9.688,15.183 4.133,37.052 15.274,51.203 8.265,10.497 24.503,13.024 36.292,6.739 11.79,-6.285 18.668,-20.062 18.125,-33.411 -0.542,-13.349 -7.859,-25.932 -18.243,-34.338 -6.482,-5.249 -14.547,-9.563 -17.552,-17.343 -1.362,-3.526 -1.498,-7.393 -2.396,-11.065 -4.488,-18.37 -30.822,-36.504 -48.896,-26.664 z"
         id="path73" />
      <path
         style="fill:#a0a3a2"
         d="m 3176.318,491.433 c -4.771,-3.768 -11.975,-3.146 -17.08,0.153 -5.105,3.298 -8.437,8.737 -10.884,14.301 -2.298,5.224 -3.989,10.859 -3.673,16.558 0.314,5.698 2.894,11.479 7.66,14.616 7.886,5.19 18.614,1.713 26.438,-3.57 7.271,-4.911 13.863,-11.844 15.348,-20.491 1.484,-8.647 -4.027,-18.769 -12.749,-19.726 z"
         id="path74" />
      <path
         style="fill:#a0a3a2"
         d="m 2898.57,705.363 c 0.334,10.677 -9.063,20.121 -7.801,30.728 1.081,9.088 10.33,15.707 19.479,15.97 9.148,0.262 17.795,-4.612 24.355,-10.994 6.559,-6.382 11.444,-14.241 16.777,-21.678 6.457,-9.002 14,-18.472 13.802,-29.548 -0.385,-21.494 -28.675,-33.702 -47.393,-30.261 -7.484,1.376 -18.096,6.876 -22.002,13.623 -6.92,11.952 2.404,20.096 2.783,32.16 z"
         id="path75" />
      <path
         style="fill:#a0a3a2"
         d="m 2998.207,669.865 c -0.2,-1.588 -0.399,-3.176 -0.599,-4.764 -4.206,1.821 -8.401,4.019 -11.371,7.51 -2.97,3.492 -4.483,8.546 -2.726,12.779 1.701,4.094 6.153,6.594 10.576,6.899 4.424,0.304 8.786,-1.273 12.651,-3.443 4.799,-2.694 9.425,-7.066 9.485,-12.57 0.061,-5.503 -7.275,-10.318 -11.198,-6.458 z"
         id="path76" />
      <path
         style="opacity:0.35;fill:#ffffff"
         d="m 2400.167,365.116 c -7.653,4.527 -14.784,10.335 -19.326,17.98 -6.763,11.38 -7.052,25.339 -6.964,38.577 0.291,43.185 2.598,86.355 6.911,129.325 1.319,13.147 2.945,26.66 9.304,38.242 2.531,4.608 7.408,9.361 12.315,7.474 1.897,-0.729 3.304,-2.335 4.544,-3.944 17.598,-22.808 16.391,-54.263 18.046,-83.023 1.132,-19.645 3.977,-39.19 8.493,-58.342 3.23,-13.699 8.364,-28.559 20.71,-35.317 7.412,-4.058 16.351,-4.494 23.884,-8.322 11.819,-6.007 18.385,-20.8 14.91,-33.595 -9.752,-35.906 -70.515,-22.253 -92.827,-9.055 z"
         id="path77" />
      <path
         style="opacity:0.35;fill:#ffffff"
         d="m 3015.693,392.036 c 4.162,13.592 15.089,24.1 26.932,31.962 11.844,7.863 24.946,13.707 36.646,21.781 26.92,18.576 45.628,48.363 75.069,62.609 7.303,3.534 18.21,4.825 21.615,-2.538 1.255,-2.713 0.983,-5.873 0.417,-8.807 -5.374,-27.813 -32.443,-44.817 -54.201,-62.957 -11.805,-9.841 -22.615,-20.875 -32.213,-32.878 -8.4,-10.505 -15.955,-21.839 -26.027,-30.754 -22.366,-19.795 -59.866,-16.392 -48.238,21.582 z"
         id="path78" />
    </g>
  </g>
</svg>
