<?xml version="1.0" encoding="UTF-8" standalone="no"?>
<!-- Created with Inkscape (http://www.inkscape.org/) -->

<svg
   width="195.63638mm"
   height="188.87914mm"
   viewBox="0 0 195.63638 188.87914"
   version="1.1"
   id="svg1"
   sodipodi:docname="round-stone.svg"
   inkscape:version="1.3.2 (091e20e, 2023-11-25, custom)"
   xmlns:inkscape="http://www.inkscape.org/namespaces/inkscape"
   xmlns:sodipodi="http://sodipodi.sourceforge.net/DTD/sodipodi-0.dtd"
   xmlns="http://www.w3.org/2000/svg"
   xmlns:svg="http://www.w3.org/2000/svg">
  <sodipodi:namedview
     id="namedview1"
     pagecolor="#ffffff"
     bordercolor="#cccccc"
     borderopacity="1"
     inkscape:showpageshadow="0"
     inkscape:pageopacity="1"
     inkscape:pagecheckerboard="0"
     inkscape:deskcolor="#d1d1d1"
     inkscape:document-units="mm"
     inkscape:zoom="0.44870582"
     inkscape:cx="446.84065"
     inkscape:cy="455.75518"
     inkscape:window-width="1280"
     inkscape:window-height="649"
     inkscape:window-x="-8"
     inkscape:window-y="-8"
     inkscape:window-maximized="1"
     inkscape:current-layer="g23" />
  <defs
     id="defs1" />
  <g
     inkscape:label="Layer 1"
     inkscape:groupmode="layer"
     id="layer1"
     transform="translate(-7.4083311,-53.975001)">
    <g
       id="g23"
       style="display:inline"
       transform="matrix(0.26458333,0,0,0.26458333,-45.478383,22.035852)">
      <path
         style="fill:#707272;fill-opacity:1"
         d="m 232.333,318.048 c -15.7,27.466 -20.393,59.657 -24.799,90.985 -4.777,33.967 -9.567,68.261 -6.865,102.456 2.687,34.005 12.71,66.966 23.404,99.358 11.477,34.762 24.05,69.735 45.116,99.675 21.144,30.049 50.082,53.86 80.88,73.896 24.744,16.097 50.913,30.001 78.102,41.498 7.567,3.2 15.284,6.233 23.383,7.61 7.225,1.228 14.602,1.112 21.929,0.992 68.617,-1.122 137.233,-2.244 205.85,-3.366 9.116,-0.149 18.39,-0.323 27.065,-3.127 9.438,-3.05 17.606,-9.029 25.592,-14.912 38.411,-28.296 76.821,-56.591 115.231,-84.887 7.071,-5.209 14.253,-10.527 19.486,-17.581 4.855,-6.545 7.8,-14.277 10.686,-21.898 16.385,-43.275 32.771,-86.55 49.156,-129.824 4.052,-10.702 8.122,-21.464 10.344,-32.69 3.078,-15.548 2.532,-31.555 1.973,-47.395 -1.198,-33.989 -3.664,-103.92 -4.862,-137.908 -1.267,-35.942 -102.17,-154.422 -121.849,-163.249 -73.304,-32.882 -73.304,-32.882 -146.285,-39.006 -23.725,-1.991 -72.471,-16.017 -96.276,-15.578 -25.161,0.465 -64.768,-5.578 -89.31,-0.01 -48.552,11.015 -113.035,34.706 -148.95,74.937 -32.46,36.357 -74.889,77.843 -99.001,120.024 z"
         id="path1" />
      <path
         style="fill:#909493"
         d="m 247.16,323.989 c -14.811,25.91 -19.237,56.277 -23.394,85.831 -4.507,32.042 -9.025,64.394 -6.477,96.651 2.534,32.079 11.99,63.172 22.079,93.729 10.827,32.793 22.687,65.785 42.56,94.028 19.946,28.347 47.244,50.809 76.298,69.71 23.342,15.185 48.029,28.301 73.677,39.146 7.139,3.019 14.418,5.88 22.059,7.179 6.815,1.158 13.774,1.049 20.686,0.935 64.729,-1.058 129.458,-2.117 194.187,-3.175 8.6,-0.141 17.348,-0.305 25.532,-2.95 8.904,-2.877 16.609,-8.517 24.143,-14.066 36.234,-26.693 72.468,-53.385 108.702,-80.078 6.671,-4.914 13.446,-9.931 18.382,-16.585 4.58,-6.175 7.358,-13.468 10.08,-20.658 15.457,-40.823 30.914,-81.646 46.371,-122.469 3.822,-10.095 7.662,-20.248 9.758,-30.837 2.903,-14.667 2.388,-29.768 1.861,-44.71 -1.13,-32.063 -3.457,-98.032 -4.587,-130.095 -1.195,-33.906 -96.381,-145.673 -114.946,-154.001 -69.151,-31.02 -69.151,-31.02 -137.997,-36.796 -22.381,-1.878 -68.366,-15.11 -90.822,-14.695 -23.735,0.439 -61.099,-5.262 -84.25,-0.009 -45.801,10.391 -106.631,32.74 -140.512,70.692 -30.619,34.296 -70.644,73.431 -93.39,113.223 z"
         id="path2" />
      <path
         style="fill:#a0a5a5"
         d="m 385.528,546.377 c 83.135,-35.158 178.25,-28.636 264.239,-56.086 51.496,-16.439 98.325,-44.612 147.67,-66.683 37.631,-16.831 77.455,-30.533 112.492,-51.657 -0.353,-10.013 -0.673,-19.08 -0.93,-26.378 -1.195,-33.906 -96.382,-145.673 -114.946,-154.001 -69.151,-31.02 -69.151,-31.02 -137.997,-36.796 -22.381,-1.878 -68.366,-15.11 -90.822,-14.695 -23.735,0.439 -61.099,-5.262 -84.249,-0.009 -45.801,10.391 -106.631,32.74 -140.512,70.692 -30.62,34.298 -70.645,73.434 -93.391,113.225 -14.81,25.91 -19.237,56.277 -23.394,85.831 -4.507,32.042 -9.025,64.394 -6.477,96.651 2.534,32.079 11.99,63.172 22.079,93.729 0.598,1.81 1.2,3.621 1.805,5.432 15.57,0.535 32.239,-4.096 46.786,-10.257 33.547,-14.21 64.092,-34.808 97.647,-48.998 z"
         id="path3" />
      <path
         style="fill:#adb3b3"
         d="m 304.517,342.69 c -12.141,21.239 -15.769,46.131 -19.177,70.357 -3.694,26.266 -7.397,52.785 -5.309,79.227 2.077,26.295 9.828,51.783 18.098,76.831 8.875,26.881 18.597,53.925 34.887,77.077 16.35,23.236 38.727,41.649 62.543,57.142 19.134,12.447 39.37,23.199 60.394,32.089 5.852,2.474 11.818,4.82 18.082,5.885 5.586,0.95 11.291,0.86 16.957,0.767 53.059,-0.868 106.119,-1.735 159.179,-2.602 7.049,-0.116 14.22,-0.25 20.929,-2.419 7.298,-2.359 13.615,-6.981 19.79,-11.531 29.702,-21.88 59.403,-43.761 89.106,-65.641 5.468,-4.028 11.021,-8.14 15.068,-13.595 3.754,-5.062 6.031,-11.039 8.263,-16.934 12.67,-33.463 25.341,-66.926 38.011,-100.39 3.133,-8.275 6.28,-16.598 7.998,-25.278 2.38,-12.023 1.958,-24.401 1.526,-36.649 -0.927,-26.283 -2.833,-80.359 -3.76,-106.642 -0.98,-27.793 -79.006,-119.411 -94.224,-126.237 -56.684,-25.427 -56.684,-25.427 -113.119,-30.163 -18.346,-1.54 -56.041,-12.386 -74.448,-12.046 -19.456,0.359 -50.083,-4.313 -69.061,-0.008 -37.544,8.518 -87.408,26.838 -115.18,57.947 -25.098,28.116 -57.907,60.195 -76.553,92.813 z"
         id="path4" />
      <path
         style="fill:#bebfb6"
         d="m 309.133,590.631 c -8.27,-25.047 -16.021,-50.536 -18.098,-76.831 -2.089,-26.442 1.614,-52.961 5.309,-79.227 3.407,-24.226 7.036,-49.118 19.177,-70.357 18.646,-32.618 51.455,-64.698 76.554,-92.813 27.772,-31.109 77.636,-49.429 115.18,-57.947 18.977,-4.306 49.605,0.367 69.061,0.008 18.408,-0.34 56.102,10.506 74.448,12.046 56.435,4.735 56.435,4.735 113.119,30.163 11.227,5.036 56.63,56.215 80.071,93.876 -14.087,-35.457 -77.865,-109.3 -91.467,-115.402 -56.684,-25.428 -56.684,-25.428 -113.119,-30.163 -18.346,-1.539 -56.04,-12.385 -74.448,-12.045 -19.456,0.359 -50.084,-4.313 -69.061,-0.008 -37.544,8.518 -87.408,26.838 -115.18,57.947 -25.1,28.115 -57.909,60.195 -76.554,92.813 -12.141,21.239 -15.769,46.131 -19.177,70.357 -3.694,26.266 -7.397,52.785 -5.309,79.227 2.077,26.295 9.829,51.784 18.098,76.831 7.767,23.524 16.182,47.172 29.08,68.228 -6.956,-15.079 -12.472,-30.916 -17.684,-46.703 z"
         id="path5" />
      <path
         style="fill:#707272"
         d="m 291.881,333.972 c 7.587,2.514 15.298,5.089 21.827,9.698 6.321,4.463 11.251,10.639 17.4,15.337 13.22,10.102 30.656,12.456 45.75,19.454 16.013,7.423 29.038,19.899 41.742,32.151 -16.014,-17.015 -29.738,-36.183 -40.684,-56.826 -1.565,-2.952 -3.154,-6.032 -5.792,-8.083 -2.608,-2.028 -5.936,-2.812 -9.069,-3.862 -25.165,-8.432 -39.153,-34.523 -58.705,-52.471 -6.213,-5.704 -13.033,-16.576 -21.305,-14.931 -3.618,0.72 -13.595,13.154 -19.185,22.357 -5.485,9.031 -17.038,28.122 -19.071,32.291 16.427,1.894 30.146,-0.729 47.092,4.885 z"
         id="path6" />
      <path
         style="fill:#707272"
         d="m 706.055,202.602 c -11.519,21.566 0.845,48.712 -5.495,72.325 -2.341,8.72 -7.137,16.536 -11.315,24.54 -10.753,20.598 -17.616,42.961 -24.42,65.179 23.042,-22.306 46.083,-44.612 69.125,-66.919 1.898,-1.837 3.821,-3.706 5.143,-5.993 6.738,-11.658 -4.826,-27.274 0.725,-39.542 5.212,-11.521 21.063,-12.19 31.988,-18.557 13.281,-7.739 21.371,-24.73 34.581,-32.59 -3.843,-8.498 -63.361,-35.257 -72,-34.344 -8.406,0.887 -23.747,27.24 -28.332,35.901 z"
         id="path7" />
      <path
         style="fill:#adb3b3"
         d="m 360.282,196.116 c 14.03,10.137 30.185,20.803 47.226,17.771 8.607,-1.532 16.165,-6.432 23.777,-10.733 18.814,-10.633 39.394,-18.134 60.638,-22.103 4.535,-0.847 9.771,-2.011 11.801,-6.153 0.919,-1.874 0.976,-4.039 1.015,-6.127 0.089,-4.78 0.179,-9.559 0.268,-14.339 0.041,-2.168 0.047,-4.469 -1.082,-6.32 -2.181,-3.577 -7.282,-3.704 -11.419,-3.049 -14.266,2.257 -27.521,8.651 -41.48,12.356 -7.972,2.115 -16.151,3.347 -24.182,5.227 -22.17,5.189 -50.626,16.415 -66.562,33.47 z"
         id="path8" />
      <path
         style="fill:#adb3b3"
         d="m 291.758,270.934 c 12.829,3.525 20.201,16.645 30.705,24.809 1.95,1.515 4.142,2.911 6.602,3.125 3.907,0.34 7.502,-2.431 9.575,-5.76 2.073,-3.329 3.019,-7.215 4.45,-10.866 6.521,-16.643 22.486,-27.392 33.371,-41.57 1.973,-2.569 3.606,-6.691 1.007,-8.625 -2.403,-1.787 -5.638,0.383 -8.066,2.136 -11.989,8.654 -27.666,7.948 -41.565,10.644 -16.116,3.127 -26.635,13.019 -36.079,26.107 z"
         id="path9" />
      <path
         style="fill:#adb3b3"
         d="m 632.371,178.421 c 0.553,3.148 1.178,6.455 3.232,8.904 2.884,3.44 7.754,4.279 12.201,4.894 12.386,1.712 24.773,3.424 37.159,5.137 3.371,0.466 6.915,0.914 10.087,-0.318 4.829,-1.876 7.39,-6.985 10.309,-11.266 3.268,-4.793 7.463,-8.952 12.286,-12.176 1.394,-0.933 2.964,-1.956 3.339,-3.59 0.691,-3.015 -3.023,-5.071 -6.077,-5.562 -5.965,-0.959 -12.052,-0.258 -18.088,0.018 -15.713,0.719 -30.999,-1.739 -45.99,-6.314 -15.066,-4.599 -21.023,5.676 -18.458,20.273 z"
         id="path10" />
      <path
         style="fill:#818483"
         d="m 682.07,753.939 c 1.32,11.165 3.473,22.231 6.433,33.076 0.602,2.205 1.324,4.539 3.086,5.995 4.273,3.533 10.48,-0.438 14.589,-4.161 36.739,-33.283 80.385,-57.782 121.413,-85.608 7.004,-4.75 14.464,-10.351 16.343,-18.603 2.867,-12.585 -8.36,-23.564 -18.463,-31.598 -4.645,-3.693 -10.04,-7.604 -15.91,-6.737 -3.462,0.512 -6.441,2.635 -9.267,4.7 -22.898,16.74 -45.541,33.828 -67.919,51.256 -11.054,8.609 -22.044,17.302 -32.967,26.077 -9.315,7.484 -18.907,12.328 -17.338,25.603 z"
         id="path11" />
      <path
         style="fill:#818483"
         d="m 457.566,794.64 c -1.026,2.823 -1.823,6.496 0.497,8.404 1.3,1.07 3.131,1.126 4.815,1.131 29.585,0.093 59.214,0.185 88.694,-2.302 18.061,-1.524 36.057,-4.015 54.173,-4.537 22.219,-0.64 44.4,1.687 66.583,3.098 1.873,0.119 3.83,0.217 5.544,-0.545 3.92,-1.744 4.717,-6.887 4.751,-11.178 0.059,-7.5 -0.537,-15.004 -1.778,-22.401 -0.651,-3.876 -1.604,-7.962 -4.401,-10.724 -3.742,-3.694 -9.582,-3.937 -14.841,-3.951 -59.077,-0.168 -118.154,-0.337 -177.231,-0.505 -11.167,-0.032 -11.205,4.967 -15.528,15.038 -1.17,2.725 -9.939,28.472 -11.278,28.472 z"
         id="path12" />
      <path
         style="fill:#707272"
         d="m 786.417,638.568 c -12.978,1.576 -25.956,3.152 -38.934,4.728 -2.515,0.306 -5.396,0.499 -7.236,-1.241 -1.938,-1.831 -1.786,-4.882 -2.428,-7.469 -2.073,-8.351 -12.147,-11.386 -20.603,-12.975 -22.596,-4.248 -45.191,-8.496 -67.787,-12.744 29.825,-6.076 59.65,-12.153 89.475,-18.229 4.435,-0.903 9.393,-1.719 13.201,0.727 4.168,2.678 6.363,8.9 11.315,9.033 2.354,0.063 4.442,-1.393 6.375,-2.739 11.034,-7.681 23.616,-13.86 37.04,-14.607 7.12,-0.396 14.226,0.746 21.266,1.883 18.464,2.984 39.041,6.718 57.504,9.702 -4.87,15.725 -24.356,67.779 -25.993,68.649 -7.56,4.021 -25.748,-18.087 -34.23,-21.948 -12.24,-5.571 -25.969,-4.627 -38.965,-2.77 z"
         id="path13" />
      <path
         style="fill:#a0a3a2"
         d="m 361.935,609.823 c -0.119,7.902 2.827,16.117 9.004,21.046 7.165,5.717 17.021,6.125 26.087,7.474 17.81,2.649 34.705,9.795 52.495,12.58 17.789,2.785 38.065,0.214 50.058,-13.217 6.96,-7.794 10.234,-18.386 10.637,-28.828 1.11,-28.786 -57.206,-32.99 -79.888,-38.019 -26.835,-5.949 -67.898,5.618 -68.393,38.964 z"
         id="path14" />
      <path
         style="fill:#a0a3a2"
         d="m 553.494,537.082 c -4.133,-3.336 -9.779,-3.897 -15.072,-4.325 -7.006,-0.565 -14.319,0.433 -21.018,-1.696 -4.815,-1.53 -19.366,0.553 -19.919,9.049 -0.572,8.792 -1.058,17.834 5.237,23.998 6.295,6.164 14.895,9.255 23.208,12.173 3.74,1.313 7.632,2.645 11.575,2.236 6.56,-0.679 11.667,-5.972 15.334,-11.455 6.116,-9.143 9.214,-23.071 0.655,-29.98 z"
         id="path15" />
      <path
         style="fill:#a0a3a2"
         d="m 539.706,709.313 c 12.749,2.342 25.749,3.311 38.704,2.886 8.636,-0.284 17.63,-1.313 24.871,-6.028 7.239,-4.713 12.091,-14.09 9.104,-22.195 -5.87,-15.931 -25.676,-11.455 -38.359,-12.288 -14.683,-0.964 -28.557,-10.28 -42.791,-10.453 -12.874,-0.156 -28.42,8.14 -27.426,22.697 1.104,16.183 23.058,23.022 35.897,25.381 z"
         id="path16" />
      <path
         style="fill:#a0a3a2"
         d="m 737.014,368.983 c 1.912,5.739 4.952,11.048 6.92,16.768 4.009,11.652 3.979,25.645 12.997,34.042 10.837,10.093 29.695,5.61 39.364,-5.608 9.669,-11.217 12.344,-26.734 13.774,-41.474 1.292,-13.311 1.771,-27.295 -3.785,-39.462 -22.57,-49.41 -83.52,-7.057 -69.27,35.734 z"
         id="path17" />
      <path
         style="fill:#a0a3a2"
         d="m 805.707,420.804 c -2.19,2.471 -4.381,4.941 -6.571,7.412 -3.081,3.475 -6.206,7.017 -8.15,11.234 -1.943,4.218 -2.568,9.288 -0.553,13.472 3.252,6.752 11.977,8.876 19.444,8.232 8.688,-0.751 17.568,-4.582 22.232,-11.95 4.664,-7.368 3.607,-18.506 -3.659,-23.336 -8.827,-5.863 -12.553,-16.557 -22.743,-5.064 z"
         id="path18" />
      <path
         style="fill:#a0a3a2"
         d="m 360.394,290.794 c -3.627,6.063 -5.668,14.117 -1.741,19.99 2.176,3.253 5.772,5.205 9.118,7.234 6.349,3.851 12.267,8.412 17.608,13.57 6.371,6.152 11.926,13.152 18.713,18.841 11.024,9.241 25.831,14.745 39.97,12.1 14.139,-2.645 26.761,-14.66 27.598,-29.021 1.268,-21.794 -23.967,-53.129 -44.207,-60.291 -23.563,-8.338 -53.248,-5.507 -67.059,17.577 z"
         id="path19" />
      <path
         style="fill:#a0a3a2"
         d="m 475.041,353.888 c -0.378,1.965 -0.504,4.013 -0.018,5.954 0.747,2.983 2.874,5.449 5.286,7.356 6.871,5.434 16.925,6.902 24.69,2.846 7.764,-4.056 12.347,-13.813 9.707,-22.165 -6.777,-21.445 -36.101,-12.522 -39.665,6.009 z"
         id="path20" />
      <path
         style="opacity:0.35;fill:#ffffff"
         d="m 381.779,360.643 c -15.74,25.651 -26.423,55.093 -26.13,85.187 0.123,12.683 2.315,25.682 8.895,36.525 6.579,10.844 18.122,19.207 30.801,19.561 19.398,0.542 34.881,-17.104 41.17,-35.462 6.29,-18.358 6.402,-38.304 11.82,-56.938 10.365,-35.647 41.38,-64.464 77.691,-72.185 11.795,-2.508 26.351,-4.681 30.595,-15.968 4.954,-13.172 -9.046,-25.572 -21.989,-31.096 -29.769,-12.705 -54.738,-15.234 -82.636,1.043 -28.852,16.834 -52.764,40.889 -70.217,69.333 z"
         id="path21" />
      <path
         style="opacity:0.35;fill:#ffffff"
         d="m 576.883,292.485 c -2.197,6.501 -1.713,14.191 2.523,19.59 2.412,3.076 5.83,5.207 9.354,6.898 20.203,9.696 46.238,5.479 62.348,-10.098 5.054,-4.887 9.32,-11.202 9.491,-18.23 0.195,-8.025 -5.135,-15.417 -11.942,-19.672 -24.524,-15.33 -61.736,-8.188 -71.774,21.512 z"
         id="path22" />
      <path
         style="opacity:0.35;fill:#ffffff"
         d="m 566.723,694.776 c 3.452,10.098 16.278,12.881 26.945,13.188 36.743,1.058 74.004,-8.396 104.78,-28.496 18.643,-12.176 27.711,-36.361 1.092,-43.944 -17.575,-5.006 -25.001,7.167 -37.317,15.28 -18.425,12.136 -26.611,13.051 -49.483,15.047 -13.78,1.204 -54.472,4.182 -46.017,28.925 z"
         id="path23" />
    </g>
  </g>
</svg>
