<?xml version="1.0" encoding="UTF-8" standalone="no"?>
<svg
   version="1.1"
   width="860.07751"
   height="881.7099"
   viewBox="0 0 860.07752 881.7099"
   id="svg180"
   xmlns="http://www.w3.org/2000/svg"
   xmlns:svg="http://www.w3.org/2000/svg">
  <defs
     id="defs184" />
  <g
     id="layer1"
     transform="matrix(0.7365452,0,0,0.7365452,-1282.6132,-1299.4311)">
    <g
       style="fill:#000000;fill-opacity:1;stroke-linejoin:miter"
       id="g165">
      <path
         d="m 2310.0698,2076.862 -0.3598,-0.048 q -177.8155,-3.6997 -328.3758,121.7332 -146.4803,129.8606 -197.5128,310.5447 -45.0188,163.5859 29.3877,278.987 91.8875,127.9364 249.7692,145.3001 210.6794,20.5073 467.3923,-144.0057 120.3404,-73.0258 240.2507,-198.7478 88.219,-101.5297 104.4787,-175.5388 43.8727,-174.4341 -131.4271,-292.8694 -158.6541,-94.6058 -432.4078,-44.634 l 190.8629,14.4048 q 49.104,5.438 88.7714,15.3977 93.3506,23.5837 152.1706,72.8252 142.7525,113.189 59.5277,281.8343 -39.1719,82.0265 -191.7496,208.9677 -108.0097,88.9209 -273.4267,163.9623 -240.3137,101.519 -401.9685,3.6356 -196.1253,-131.0576 -67.1703,-411.2673 76.2596,-148.4988 176.9889,-226.9131 50.501,-41.2382 117.896,-73.0052 18.3765,-8.626 47.8213,-19.1206 l 89.2912,-26.3686 q 10.9656,-3.084 9.7898,-5.0738"
         id="path163"
         style="stroke:#000000;stroke-width:51.3143;stroke-dasharray:none;stroke-opacity:1" />
    </g>
    <g
       style="fill:#000000;fill-opacity:1;stroke-linejoin:miter"
       id="g173">
      <path
         d="m 2495.6335,2123.7358 0.5472,-0.3388 q 113.3723,-91.8384 123.167,-162.7798 9.4812,-76.8014 -87.8007,-129.9926 -216.5758,-105.092 -482.7907,58.2616 -223.6271,150.3097 -259.1739,298.492 -28.3881,154.7546 120.1346,238.2014 128.5425,61.6118 291.3904,-25.6721 197.99,-113.4865 292.5776,-275.3521 -128.1464,120.9063 -162.3818,142.8826 -77.2432,58.749 -169.0307,99.9712 -78.2923,32.8728 -143.0105,33.9709 -62.9014,-2.7424 -101.9827,-28.4626 -64.7139,-45.4268 -76.122,-92.8185 -16.9632,-48.5453 6.1181,-110.3532 40.2823,-86.0041 108.6897,-146.6165 73.031,-68.8798 165.3157,-118.4048 127.1689,-63.9921 209.5649,-64.4507 108.551,-8.3723 200.8811,39.1481 59.7376,34.1205 54.4292,81.3629 -2.7842,26.6459 -21.6357,58.4181 -3.5983,9.8368 -61.8533,90.3191 -8.6797,12.6538 -7.0335,14.2138"
         id="path171"
         style="stroke:#000000;stroke-width:51.3143;stroke-dasharray:none;stroke-opacity:1" />
    </g>
  </g>
  <g
     id="g877"
     transform="matrix(0.7365452,0,0,0.7365452,-1282.6132,-1299.4311)"
     style="display:inline">
    <g
       style="fill:#919191;fill-opacity:1;stroke-linejoin:miter"
       id="g863">
      <path
         d="m 2487.8052,2072.278 -23.7376,0.07 q -166.063,0.645 -226.3923,17.5212 -52.6707,8.2174 -133.2427,56.011 -181.6796,132.1697 -287.7176,338.8157 -32.8857,71.5185 -34.4176,134.6527 -2.3124,11.1283 5.5484,60.8705 8.5742,39.1091 29.2362,74.1286 44.5255,71.3816 115.3784,117.8321 87.3537,56.2116 152.5191,53.498 49.3815,3.5322 169.042,-41.7627 129.3232,-49.8918 253.7871,-122.2492 95.4802,-55.0144 223.8298,-166.6823 l 91.4539,-116.1351 18.5454,-142.1602 -19.5317,-82.5167 -25.7654,-63.692 q -117.138,-71.1175 -158.781,-84.7149 -33.7168,-13.1945 -83.2871,-27.1953 l -66.4673,-6.2918"
         id="path861" />
    </g>
    <g
       style="fill:#000000;fill-opacity:1;stroke-linejoin:miter"
       id="g867">
      <path
         d="m 2310.0698,2076.862 -0.3598,-0.048 q -177.8155,-3.6997 -328.3758,121.7332 -146.4803,129.8606 -197.5128,310.5447 -45.0188,163.5859 29.3877,278.987 91.8875,127.9364 249.7692,145.3001 210.6794,20.5073 467.3923,-144.0057 120.3404,-73.0258 240.2507,-198.7478 88.219,-101.5297 104.4787,-175.5388 43.8727,-174.4341 -131.4271,-292.8694 -158.6541,-94.6058 -432.4078,-44.634 l 190.8629,14.4048 q 49.104,5.438 88.7714,15.3977 93.3506,23.5837 152.1706,72.8252 142.7525,113.189 59.5277,281.8343 -39.1719,82.0265 -191.7496,208.9677 -108.0097,88.9209 -273.4267,163.9623 -240.3137,101.519 -401.9685,3.6356 -196.1253,-131.0576 -67.1703,-411.2673 76.2596,-148.4988 176.9889,-226.9131 50.501,-41.2382 117.896,-73.0052 18.3765,-8.626 47.8213,-19.1206 l 89.2912,-26.3686 q 10.9656,-3.084 9.7898,-5.0738"
         id="path865" />
    </g>
    <g
       style="fill:#b6b6b6;fill-opacity:1;stroke-linejoin:miter"
       id="g871">
      <path
         d="m 2108.6545,1862.896 -23.9389,18.9034 q -160.2459,127.3059 -177.4641,146.2244 -57.9547,56.2355 -74.7755,98.1522 -22.2991,40.6233 -19.024,125.2935 5.9064,75.0165 47.4773,125.5785 31.3337,37.4269 96.3617,52.941 62.6837,13.2796 112.0877,-2.8547 130.0576,-45.1021 310.4738,-184.3655 51.9241,-42.25 77.0782,-72.9248 86.1777,-100.7878 113.4165,-145.148 45.8103,-79.5456 16.9838,-127.7042 -18.0449,-29.8613 -92.7329,-47.1687 -67.4011,-15.6484 -216.0625,-30.4466 l -169.8811,43.5195"
         id="path869" />
    </g>
    <g
       style="fill:#000000;fill-opacity:1;stroke-linejoin:miter"
       id="g875">
      <path
         d="m 2495.6335,2123.7358 0.5472,-0.3388 q 113.3723,-91.8384 123.167,-162.7798 9.4812,-76.8014 -87.8007,-129.9926 -216.5758,-105.092 -482.7907,58.2616 -223.6271,150.3097 -259.1739,298.492 -28.3881,154.7546 120.1346,238.2014 128.5425,61.6118 291.3904,-25.6721 197.99,-113.4865 292.5776,-275.3521 -128.1464,120.9063 -162.3818,142.8826 -77.2432,58.749 -169.0307,99.9712 -78.2923,32.8728 -143.0105,33.9709 -62.9014,-2.7424 -101.9827,-28.4626 -64.7139,-45.4268 -76.122,-92.8185 -16.9632,-48.5453 6.1181,-110.3532 40.2823,-86.0041 108.6897,-146.6165 73.031,-68.8798 165.3157,-118.4048 127.1689,-63.9921 209.5649,-64.4507 108.551,-8.3723 200.8811,39.1481 59.7376,34.1205 54.4292,81.3629 -2.7842,26.6459 -21.6357,58.4181 -3.5983,9.8368 -61.8533,90.3191 -8.6797,12.6538 -7.0335,14.2138"
         id="path873" />
    </g>
  </g>
</svg>
